<svg width="36" height="36" viewBox="0 0 36 36" fill="none" xmlns="http://www.w3.org/2000/svg">
<g filter="url(#filter0_d_47_54)">
<path d="M18.0712 30.9778C25.9606 30.9778 32.3562 24.5705 32.3562 16.6667C32.3562 8.76286 25.9606 2.35555 18.0712 2.35555C10.1819 2.35555 3.78625 8.76286 3.78625 16.6667C3.78625 24.5705 10.1819 30.9778 18.0712 30.9778Z" fill="#0F5F1B"/>
<g style="mix-blend-mode:overlay">
<path d="M18.0712 30.9778C25.9606 30.9778 32.3562 24.5705 32.3562 16.6667C32.3562 8.76286 25.9606 2.35555 18.0712 2.35555C10.1819 2.35555 3.78625 8.76286 3.78625 16.6667C3.78625 24.5705 10.1819 30.9778 18.0712 30.9778Z" fill="url(#paint0_radial_47_54)"/>
</g>
<path d="M26.9993 13.6256C26.9993 16.8858 24.0679 11.8367 18.2498 11.8367C12.4317 11.8367 9.50024 16.8858 9.50024 13.6256C9.50024 10.3653 12.4317 5.93333 18.2498 5.93333C24.0679 5.93333 26.9993 10.3653 26.9993 13.6256Z" fill="url(#paint1_linear_47_54)"/>
<g style="mix-blend-mode:overlay">
<path d="M18.2498 26.3267C19.729 26.3267 20.9282 25.1253 20.9282 23.6433C20.9282 22.1614 19.729 20.96 18.2498 20.96C16.7705 20.96 15.5714 22.1614 15.5714 23.6433C15.5714 25.1253 16.7705 26.3267 18.2498 26.3267Z" fill="white"/>
</g>
</g>
<defs>
<filter id="filter0_d_47_54" x="0.986255" y="0.955555" width="34.1699" height="34.2222" filterUnits="userSpaceOnUse" color-interpolation-filters="sRGB">
<feFlood flood-opacity="0" result="BackgroundImageFix"/>
<feColorMatrix in="SourceAlpha" type="matrix" values="0 0 0 0 0 0 0 0 0 0 0 0 0 0 0 0 0 0 127 0" result="hardAlpha"/>
<feOffset dy="1.4"/>
<feGaussianBlur stdDeviation="1.4"/>
<feComposite in2="hardAlpha" operator="out"/>
<feColorMatrix type="matrix" values="0 0 0 0 0 0 0 0 0 0 0 0 0 0 0 0 0 0 0.5 0"/>
<feBlend mode="normal" in2="BackgroundImageFix" result="effect1_dropShadow_47_54"/>
<feBlend mode="normal" in="SourceGraphic" in2="effect1_dropShadow_47_54" result="shape"/>
</filter>
<radialGradient id="paint0_radial_47_54" cx="0" cy="0" r="1" gradientUnits="userSpaceOnUse" gradientTransform="translate(18.0712 16.6667) rotate(90) scale(14.3111 14.285)">
<stop offset="0.745" stop-color="white"/>
<stop offset="1" stop-color="white" stop-opacity="0"/>
</radialGradient>
<linearGradient id="paint1_linear_47_54" x1="18.2498" y1="5.93333" x2="18.2498" y2="14.722" gradientUnits="userSpaceOnUse">
<stop stop-color="white"/>
<stop offset="1" stop-color="white" stop-opacity="0.5"/>
</linearGradient>
</defs>
</svg>
