<svg width="35" height="36" viewBox="0 0 35 36" fill="none" xmlns="http://www.w3.org/2000/svg">
<g filter="url(#filter0_d_47_47)">
<path d="M17.3588 30.9778C25.2482 30.9778 31.6438 24.5705 31.6438 16.6667C31.6438 8.76286 25.2482 2.35555 17.3588 2.35555C9.4694 2.35555 3.07379 8.76286 3.07379 16.6667C3.07379 24.5705 9.4694 30.9778 17.3588 30.9778Z" fill="#8E6500"/>
<g style="mix-blend-mode:overlay">
<path d="M17.3588 30.9778C25.2482 30.9778 31.6438 24.5705 31.6438 16.6667C31.6438 8.76286 25.2482 2.35555 17.3588 2.35555C9.4694 2.35555 3.07379 8.76286 3.07379 16.6667C3.07379 24.5705 9.4694 30.9778 17.3588 30.9778Z" fill="url(#paint0_radial_47_47)"/>
</g>
<path d="M26.2869 13.6256C26.2869 16.8858 23.3554 11.8367 17.5373 11.8367C11.7193 11.8367 8.78778 16.8858 8.78778 13.6256C8.78778 10.3653 11.7193 5.93333 17.5373 5.93333C23.3554 5.93333 26.2869 10.3653 26.2869 13.6256Z" fill="url(#paint1_linear_47_47)"/>
<g style="mix-blend-mode:overlay">
<path d="M17.5373 26.3267C19.0166 26.3267 20.2158 25.1253 20.2158 23.6433C20.2158 22.1614 19.0166 20.96 17.5373 20.96C16.0581 20.96 14.8589 22.1614 14.8589 23.6433C14.8589 25.1253 16.0581 26.3267 17.5373 26.3267Z" fill="white"/>
</g>
</g>
<defs>
<filter id="filter0_d_47_47" x="0.273792" y="0.955555" width="34.17" height="34.2222" filterUnits="userSpaceOnUse" color-interpolation-filters="sRGB">
<feFlood flood-opacity="0" result="BackgroundImageFix"/>
<feColorMatrix in="SourceAlpha" type="matrix" values="0 0 0 0 0 0 0 0 0 0 0 0 0 0 0 0 0 0 127 0" result="hardAlpha"/>
<feOffset dy="1.4"/>
<feGaussianBlur stdDeviation="1.4"/>
<feComposite in2="hardAlpha" operator="out"/>
<feColorMatrix type="matrix" values="0 0 0 0 0 0 0 0 0 0 0 0 0 0 0 0 0 0 0.5 0"/>
<feBlend mode="normal" in2="BackgroundImageFix" result="effect1_dropShadow_47_47"/>
<feBlend mode="normal" in="SourceGraphic" in2="effect1_dropShadow_47_47" result="shape"/>
</filter>
<radialGradient id="paint0_radial_47_47" cx="0" cy="0" r="1" gradientUnits="userSpaceOnUse" gradientTransform="translate(17.3588 16.6667) rotate(90) scale(14.3111 14.285)">
<stop offset="0.745" stop-color="white"/>
<stop offset="1" stop-color="white" stop-opacity="0"/>
</radialGradient>
<linearGradient id="paint1_linear_47_47" x1="17.5373" y1="5.93333" x2="17.5373" y2="14.722" gradientUnits="userSpaceOnUse">
<stop stop-color="white"/>
<stop offset="1" stop-color="white" stop-opacity="0.5"/>
</linearGradient>
</defs>
</svg>
